<!-- Generated by IcoMoon.io -->
<svg version="1.1" xmlns="http://www.w3.org/2000/svg" width="32" height="32" viewBox="0 0 32 32">
<title>close</title>
<path fill="#e7e9fc" d="M32.012 16.006c0 8.84-7.166 16.006-16.006 16.006s-16.006-7.166-16.006-16.006c0-8.84 7.166-16.006 16.006-16.006s16.006 7.166 16.006 16.006z"></path>
<path fill="none" stroke="#000" stroke-linejoin="miter" stroke-linecap="butt" stroke-miterlimit="4" stroke-width="1.3333" d="M31.345 16.006c0 8.472-6.868 15.339-15.339 15.339s-15.339-6.868-15.339-15.339c0-8.472 6.868-15.339 15.339-15.339s15.339 6.868 15.339 15.339z"></path>
<path fill="#2e2f42" d="M21.341 11.746l-1.075-1.075-4.26 4.26-4.26-4.26-1.075 1.075 4.26 4.26-4.26 4.26 1.075 1.075 4.26-4.26 4.26 4.26 1.075-1.075-4.26-4.26 4.26-4.26z"></path>
</svg>
