<svg xmlns="http://www.w3.org/2000/svg" width="32" height="32"><path fill="#e7e9fc" d="M32.012 16.006c0 8.84-7.166 16.006-16.006 16.006S0 24.846 0 16.006 7.166 0 16.006 0s16.006 7.166 16.006 16.006z"/><path fill="none" stroke="#000" stroke-width="1.333" d="M31.345 16.006c0 8.472-6.868 15.339-15.339 15.339S.667 24.477.667 16.006C.667 7.534 7.535.667 16.006.667s15.339 6.868 15.339 15.339z"/><path fill="#2e2f42" d="m21.341 11.746-1.075-1.075-4.26 4.26-4.26-4.26-1.075 1.075 4.26 4.26-4.26 4.26 1.075 1.075 4.26-4.26 4.26 4.26 1.075-1.075-4.26-4.26 4.26-4.26z"/></svg>